<svg viewBox="0 0 64 64" xmlns="http://www.w3.org/2000/svg">

    <symbol id="menu">
        <path clip-rule="evenodd" fill-rule="evenodd" d="M2 4.75A.75.75 0 012.75 4h14.5a.75.75 0 010 1.5H2.75A.75.75 0 012 4.75zm0 10.5a.75.75 0 01.75-.75h7.5a.75.75 0 010 1.5h-7.5a.75.75 0 01-.75-.75zM2 10a.75.75 0 01.75-.75h14.5a.75.75 0 010 1.5H2.75A.75.75 0 012 10z" />
    </symbol>

    <symbol id="x">
        <path d="M21 21L12 12M12 12L3 3M12 12L21.0001 3M12 12L3 21.0001" stroke="#6A7280" stroke-width="2" stroke-linecap="round" stroke-linejoin="round" />
    </symbol>

    <symbol id="slots">
        <path d="M58.384 8H5.614C3.619 8 2 10.011 2 12.493v39.012C2 53.987 3.619 56 5.614 56h52.77C60.381 56 62 53.987 62 51.505V12.493C62 10.011 60.381 8 58.384 8M21.646 52.584h-1.134c-.346-2.755-3.79-5.034-7.802-5.032c-4.005-.002-6.753 2.276-5.885 5.032H5.691a68.68 68.68 0 0 1 0-41.17h.785a70.641 70.641 0 0 0-1.203 4.468h15.059c.154-1.499.33-2.99.526-4.468h.787c-1.657 13.378-1.657 27.791.001 41.17m18.331 0h-1.132c.262-2.755-2.839-5.034-6.845-5.032c-4.008-.002-7.106 2.276-6.845 5.032h-1.133c-1.276-13.379-1.276-27.792 0-41.17h.787c-.128 1.478-.24 2.969-.339 4.468h15.059c-.099-1.499-.213-2.99-.339-4.468h.786c1.276 13.378 1.276 27.791.001 41.17m18.332 0h-1.134c.868-2.755-1.882-5.034-5.887-5.032c-4.01-.002-7.458 2.276-7.8 5.032h-1.134c1.657-13.379 1.657-27.792 0-41.17h.786c.197 1.478.373 2.969.525 4.468h15.061a69.99 69.99 0 0 0-1.205-4.468h.787a68.672 68.672 0 0 1 .001 41.17"
              fill="#6A7280"/>
        <path d="M56.234 26.942a7.428 7.428 0 0 1-.234.159c-.334-.238-.923-.632-2.077-1.028a6.71 6.71 0 0 0-2.183-.352c-1.478 0-2.828.434-3.736.819a.92.92 0 0 0-.678-.299h-1.354c-.518 0-.938.433-.938.969v5.543c0 .536.42.968.938.968h1.354a.942.942 0 0 0 .898-.692c.1-.345.397-1.391 2.504-1.391l.105.001c-2.779 2.909-3.319 6.395-3.344 6.566a.979.979 0 0 0 .217.776a.927.927 0 0 0 .71.336h6.634c.519 0 .938-.433.938-.969c0-6.042 3.45-9.594 3.727-9.868a.983.983 0 0 0 .322-.73c0-.535-.418-.969-.936-.969h-2.35a.936.936 0 0 0-.517.161M55.051 38.35h-6.634s.659-4.518 4.609-7.357c0 0-1.071-.322-2.298-.322c-1.364 0-2.921.398-3.402 2.084h-1.354v-5.543h1.354v.74s2.047-1.262 4.414-1.262c.617 0 1.257.086 1.887.303c1.807.623 1.986 1.17 2.336 1.17c.163 0 .364-.121.789-.411h2.346c0-.001-4.047 3.837-4.047 10.598"
              fill="#6A7280"/>
        <path d="M38.564 26.782h-2.35a.928.928 0 0 0-.518.16a7.428 7.428 0 0 1-.234.159c-.334-.238-.923-.632-2.077-1.028a6.71 6.71 0 0 0-2.183-.352c-1.478 0-2.828.434-3.736.819a.92.92 0 0 0-.678-.299h-1.354c-.518 0-.938.433-.938.969v5.543c0 .536.42.968.938.968h1.354a.942.942 0 0 0 .898-.692c.1-.345.397-1.391 2.504-1.391l.105.001c-2.779 2.909-3.319 6.395-3.345 6.566a.983.983 0 0 0 .218.776a.927.927 0 0 0 .71.336h6.634c.519 0 .938-.433.938-.969c0-6.042 3.45-9.594 3.727-9.868a.983.983 0 0 0 .322-.73c.001-.534-.417-.968-.935-.968m-4.05 11.568H27.88s.659-4.518 4.609-7.357c0 0-1.071-.322-2.298-.322c-1.364 0-2.921.398-3.402 2.084h-1.354v-5.543h1.354v.74s2.047-1.262 4.414-1.262c.617 0 1.257.086 1.887.303c1.807.623 1.986 1.17 2.336 1.17c.163 0 .364-.121.789-.411h2.346c0-.001-4.047 3.837-4.047 10.598"
              fill="#6A7280"/>
        <path d="M18.027 26.782h-2.35a.928.928 0 0 0-.518.16c-.046.033-.144.099-.234.159c-.334-.238-.923-.632-2.077-1.028a6.713 6.713 0 0 0-2.185-.352c-1.476 0-2.828.434-3.734.819a.92.92 0 0 0-.678-.299H4.898c-.518 0-.938.433-.938.969v5.543c0 .536.42.968.938.968h1.354a.942.942 0 0 0 .898-.692c.098-.345.397-1.391 2.504-1.391l.105.001c-2.779 2.909-3.319 6.395-3.345 6.566a.983.983 0 0 0 .218.776a.927.927 0 0 0 .71.336h6.634c.517 0 .938-.433.938-.969c0-6.042 3.45-9.594 3.727-9.868a.983.983 0 0 0 .322-.73c0-.534-.418-.968-.936-.968m-4.05 11.568H7.343s.659-4.518 4.609-7.357c0 0-1.071-.322-2.298-.322c-1.364 0-2.921.398-3.402 2.084H4.898v-5.543h1.354v.74s2.047-1.262 4.412-1.262c.619 0 1.259.086 1.889.303c1.807.623 1.986 1.17 2.336 1.17c.163 0 .364-.121.789-.411h2.346c-.001-.001-4.047 3.837-4.047 10.598"
              fill="#6A7280"/>
    </symbol>

    <symbol id="live">
        <svg width="64px" height="64px" viewBox="0 0 24 24" fill="none" xmlns="http://www.w3.org/2000/svg">
            <path d="M22 12C22 14.7578 20.8836 17.2549 19.0782 19.064M2 12C2 9.235 3.12222 6.73208 4.93603 4.92188M19.1414 5.00003C19.987 5.86254 20.6775 6.87757 21.1679 8.00003M5 19.1415C4.08988 18.2493 3.34958 17.1845 2.83209 16"
                  stroke="#6A7280" stroke-width="1.5" stroke-linecap="round" stroke-linejoin="round"/>
            <path d="M16.2849 8.04397C17.3458 9.05877 18 10.4488 18 11.9822C18 13.5338 17.3302 14.9386 16.2469 15.9564M7.8 16C6.68918 14.9789 6 13.556 6 11.9822C6 10.4266 6.67333 9.01843 7.76162 8"
                  stroke="#6A7280" stroke-width="1.5" stroke-linecap="round" stroke-linejoin="round"/>
            <path d="M13.6563 10.4511C14.5521 11.1088 15 11.4376 15 12C15 12.5624 14.5521 12.8912 13.6563 13.5489C13.4091 13.7304 13.1638 13.9014 12.9384 14.0438C12.7407 14.1688 12.5168 14.298 12.2849 14.4249C11.3913 14.914 10.9444 15.1586 10.5437 14.8878C10.1429 14.617 10.1065 14.0502 10.0337 12.9166C10.0131 12.596 10 12.2817 10 12C10 11.7183 10.0131 11.404 10.0337 11.0834C10.1065 9.94977 10.1429 9.38296 10.5437 9.1122C10.9444 8.84144 11.3913 9.08599 12.2849 9.57509C12.5168 9.70198 12.7407 9.83123 12.9384 9.95619C13.1638 10.0986 13.4091 10.2696 13.6563 10.4511Z"
                  stroke="#6A7280" stroke-width="1.5"/>
        </svg>
    </symbol>

    <symbol id="bets">
        <path d="M0.21,56.33c0-0.2,0.01-0.4,0.05-0.6C1.61,41.05,8.14,27.85,18,18C29.11,6.88,44.47,0,61.44,0c0.65,0,1.3,0.01,1.95,0.03 c0.28-0.03,0.57-0.02,0.86,0.03C80.1,0.78,94.38,7.49,104.88,18c11.12,11.12,18,26.48,18,43.44c0,16.97-6.88,32.33-18,43.44 c-0.53,0.53-1.06,1.05-1.61,1.55c-0.29,0.49-0.71,0.87-1.21,1.09c-10.83,9.55-25.05,15.35-40.63,15.35c-0.41,0-0.82-0.01-1.23-0.01 c-0.19,0.02-0.37,0.01-0.55-0.01c-16.26-0.46-30.93-7.24-41.66-17.97c-0.96-0.96-1.89-1.96-2.79-2.98 c-0.37-0.26-0.66-0.61-0.85-0.99C5.4,90.23,0,76.47,0,61.44C0,59.72,0.07,58.02,0.21,56.33L0.21,56.33z M5.76,54.91 c5.34,3.33,11.06,6,17,8.1c-0.25-10.33-2.27-21.97-6.27-35.06C10.74,35.64,6.93,44.87,5.76,54.91L5.76,54.91z M20.58,23.07 c5.1,15.73,7.51,29.54,7.57,41.67c4.86,1.41,9.84,2.47,14.84,3.2C42.75,64.24,42.7,60.6,42.83,57c0.66-18.43,6.02-35.59,15.9-51.55 c-14.4,0.69-27.38,6.8-36.93,16.35C21.39,22.22,20.98,22.64,20.58,23.07L20.58,23.07z M65.06,5.5 C54.55,21.44,48.85,38.65,48.19,57.19c-0.13,3.75-0.06,7.55,0.22,11.41c4.5,0.45,9,0.66,13.42,0.64c2.15-0.01,4.27-0.07,6.38-0.18 c-0.46-7.15,0.86-14.53,3.66-21.67C76.35,36,84.63,25.17,95.42,16.86C86.89,10.35,76.44,6.23,65.06,5.5L65.06,5.5z M99.62,20.4 c-10.46,7.79-18.48,18.1-22.74,28.96c-2.51,6.41-3.71,12.99-3.3,19.33c18.78-1.72,35.06-7.24,43.49-14.22 c-1.57-12.69-7.39-24.07-15.99-32.66C100.6,21.33,100.11,20.86,99.62,20.4L99.62,20.4z M117.49,60.82 C107.84,67.31,92.08,72.32,74.31,74c0.95,4.39,2.74,8.61,5.49,12.49c4.31,6.09,10.99,11.41,20.44,15.41 c0.28-0.27,0.56-0.54,0.84-0.82c10.14-10.14,16.42-24.16,16.42-39.64C117.49,61.23,117.49,61.03,117.49,60.82L117.49,60.82z M95.74,105.78c-9.16-4.28-15.82-9.85-20.32-16.2c-3.34-4.72-5.47-9.85-6.52-15.18c-2.33,0.13-4.69,0.2-7.07,0.21 c-4.25,0.02-8.57-0.17-12.9-0.57c1.66,13.77,5.9,28.25,12.78,43.45C74.53,117.43,86.33,113.07,95.74,105.78L95.74,105.78z M55.71,117.2c-6.65-15.26-10.71-29.85-12.24-43.79c-5.19-0.71-10.37-1.74-15.45-3.14c-0.64,11.1-3.37,20.71-7.92,29.01 c0.56,0.61,1.13,1.21,1.71,1.79C30.68,109.95,42.52,115.86,55.71,117.2L55.71,117.2z M16.38,94.79c3.74-7.51,5.93-16.16,6.34-26.12 c-6.01-2-11.84-4.55-17.33-7.72c0,0.16,0,0.32,0,0.49C5.39,73.93,9.47,85.47,16.38,94.79L16.38,94.79z"/>
    </symbol>

    <symbol id="bonus">
        <path d="M12 7V20M12 7H8.46429C7.94332 7 7.4437 6.78929 7.07533 6.41421C6.70695 6.03914 6.5 5.53043 6.5 5C6.5 4.46957 6.70695 3.96086 7.07533 3.58579C7.4437 3.21071 7.94332 3 8.46429 3C11.2143 3 12 7 12 7ZM12 7H15.5357C16.0567 7 16.5563 6.78929 16.9247 6.41421C17.293 6.03914 17.5 5.53043 17.5 5C17.5 4.46957 17.293 3.96086 16.9247 3.58579C16.5563 3.21071 16.0567 3 15.5357 3C12.7857 3 12 7 12 7ZM5 12H19V17.8C19 18.9201 19 19.4802 18.782 19.908C18.5903 20.2843 18.2843 20.5903 17.908 20.782C17.4802 21 16.9201 21 15.8 21H8.2C7.07989 21 6.51984 21 6.09202 20.782C5.71569 20.5903 5.40973 20.2843 5.21799 19.908C5 19.4802 5 18.9201 5 17.8V12ZM4.6 12H19.4C19.9601 12 20.2401 12 20.454 11.891C20.6422 11.7951 20.7951 11.6422 20.891 11.454C21 11.2401 21 10.9601 21 10.4V8.6C21 8.03995 21 7.75992 20.891 7.54601C20.7951 7.35785 20.6422 7.20487 20.454 7.10899C20.2401 7 19.9601 7 19.4 7H4.6C4.03995 7 3.75992 7 3.54601 7.10899C3.35785 7.20487 3.20487 7.35785 3.10899 7.54601C3 7.75992 3 8.03995 3 8.6V10.4C3 10.9601 3 11.2401 3.10899 11.454C3.20487 11.6422 3.35785 11.7951 3.54601 11.891C3.75992 12 4.03995 12 4.6 12Z"
              stroke="#6A7280" stroke-width="1.5" stroke-linecap="round" stroke-linejoin="round"/>
    </symbol>

    <symbol id="ranking">
        <path d="M13.3 8.10998L14.62 10.75C14.8 11.11 15.28 11.47 15.68 11.53L18.07 11.93C19.6 12.19 19.96 13.29 18.86 14.39L17 16.25C16.69 16.56 16.51 17.17 16.61 17.61L17.14 19.92C17.56 21.74 16.59 22.45 14.98 21.5L12.74 20.17C12.33 19.93 11.67 19.93 11.26 20.17L9.01996 21.5C7.40996 22.45 6.43995 21.74 6.85995 19.92L7.38998 17.61C7.48998 17.18 7.30997 16.57 6.99997 16.25L5.13998 14.39C4.03998 13.29 4.39996 12.18 5.92996 11.93L8.31997 11.53C8.71997 11.46 9.19997 11.11 9.37997 10.75L10.7 8.10998C11.41 6.67998 12.59 6.67998 13.3 8.10998Z"
              stroke="#6A7280" stroke-width="1.5" stroke-linecap="round" stroke-linejoin="round"/>
        <path d="M6 9V2" stroke="#6A7280" stroke-width="1.5" stroke-linecap="round"
              stroke-linejoin="round"/>
        <path d="M18 9V2" stroke="#6A7280" stroke-width="1.5" stroke-linecap="round"
              stroke-linejoin="round"/>
        <path d="M12 4V2" stroke="#6A7280" stroke-width="1.5" stroke-linecap="round"
              stroke-linejoin="round"/>
    </symbol>

    <symbol id="refs">
        <path fill-rule="evenodd" clip-rule="evenodd"
              d="M14.9238 7.281C14.9227 8.5394 13.9018 9.55874 12.6435 9.558C11.3851 9.55726 10.3654 8.53673 10.3658 7.27833C10.3662 6.01994 11.3864 5 12.6448 5C13.2495 5.00027 13.8293 5.24073 14.2567 5.6685C14.6841 6.09627 14.924 6.67631 14.9238 7.281Z"
              stroke="#6A7280" stroke-width="1.5" stroke-linecap="round" stroke-linejoin="round"/>
        <path fill-rule="evenodd" clip-rule="evenodd"
              d="M14.9968 12.919H10.2968C8.65471 12.9706 7.35028 14.3166 7.35028 15.9595C7.35028 17.6024 8.65471 18.9484 10.2968 19H14.9968C16.6388 18.9484 17.9432 17.6024 17.9432 15.9595C17.9432 14.3166 16.6388 12.9706 14.9968 12.919V12.919Z"
              stroke="#6A7280" stroke-width="1.5" stroke-linecap="round" stroke-linejoin="round"/>
        <path fill-rule="evenodd" clip-rule="evenodd"
              d="M20.6878 9.02403C20.6872 9.98653 19.9066 10.7664 18.9441 10.766C17.9816 10.7657 17.2016 9.9852 17.2018 9.0227C17.202 8.06019 17.9823 7.28003 18.9448 7.28003C19.4072 7.28003 19.8507 7.4638 20.1776 7.7909C20.5045 8.11799 20.688 8.56158 20.6878 9.02403V9.02403Z"
              stroke="#6A7280" stroke-width="1.5" stroke-linecap="round" stroke-linejoin="round"/>
        <path fill-rule="evenodd" clip-rule="evenodd"
              d="M4.3338 9.02401C4.3338 9.98664 5.11417 10.767 6.0768 10.767C7.03943 10.767 7.8198 9.98664 7.8198 9.02401C7.8198 8.06137 7.03943 7.28101 6.0768 7.28101C5.11417 7.28101 4.3338 8.06137 4.3338 9.02401V9.02401Z"
              stroke="#6A7280" stroke-width="1.5" stroke-linecap="round" stroke-linejoin="round"/>
        <path d="M19.4368 12.839C19.0226 12.839 18.6868 13.1748 18.6868 13.589C18.6868 14.0032 19.0226 14.339 19.4368 14.339V12.839ZM20.7438 13.589L20.7593 12.8392C20.7541 12.839 20.749 12.839 20.7438 12.839V13.589ZM20.7438 18.24V18.99C20.749 18.99 20.7541 18.9899 20.7593 18.9898L20.7438 18.24ZM19.4368 17.49C19.0226 17.49 18.6868 17.8258 18.6868 18.24C18.6868 18.6542 19.0226 18.99 19.4368 18.99V17.49ZM5.58477 14.339C5.99899 14.339 6.33477 14.0032 6.33477 13.589C6.33477 13.1748 5.99899 12.839 5.58477 12.839V14.339ZM4.27777 13.589V12.839C4.27259 12.839 4.26741 12.839 4.26222 12.8392L4.27777 13.589ZM4.27777 18.24L4.26222 18.9898C4.26741 18.9899 4.27259 18.99 4.27777 18.99V18.24ZM5.58477 18.99C5.99899 18.99 6.33477 18.6542 6.33477 18.24C6.33477 17.8258 5.99899 17.49 5.58477 17.49V18.99ZM19.4368 14.339H20.7438V12.839H19.4368V14.339ZM20.7282 14.3388C21.5857 14.3566 22.2715 15.0568 22.2715 15.9145H23.7715C23.7715 14.2405 22.4329 12.8739 20.7593 12.8392L20.7282 14.3388ZM22.2715 15.9145C22.2715 16.7722 21.5857 17.4724 20.7282 17.4902L20.7593 18.9898C22.4329 18.9551 23.7715 17.5885 23.7715 15.9145H22.2715ZM20.7438 17.49H19.4368V18.99H20.7438V17.49ZM5.58477 12.839H4.27777V14.339H5.58477V12.839ZM4.26222 12.8392C2.58861 12.8739 1.25 14.2405 1.25 15.9145H2.75C2.75 15.0568 3.43584 14.3566 4.29332 14.3388L4.26222 12.8392ZM1.25 15.9145C1.25 17.5885 2.58861 18.9551 4.26222 18.9898L4.29332 17.4902C3.43584 17.4724 2.75 16.7722 2.75 15.9145H1.25ZM4.27777 18.99H5.58477V17.49H4.27777V18.99Z"
              fill="#6A7280"/>
    </symbol>

    <symbol id="support">
        <path d="M379.734355,174.506667 C373.121022,106.666667 333.014355,-2.13162821e-14 209.067688,-2.13162821e-14 C85.1210217,-2.13162821e-14 45.014355,106.666667 38.4010217,174.506667 C15.2012632,183.311569 -0.101643453,205.585799 0.000508304259,230.4 L0.000508304259,260.266667 C0.000508304259,293.256475 26.7445463,320 59.734355,320 C92.7241638,320 119.467688,293.256475 119.467688,260.266667 L119.467688,230.4 C119.360431,206.121456 104.619564,184.304973 82.134355,175.146667 C86.4010217,135.893333 107.307688,42.6666667 209.067688,42.6666667 C310.827688,42.6666667 331.521022,135.893333 335.787688,175.146667 C313.347976,184.324806 298.68156,206.155851 298.667688,230.4 L298.667688,260.266667 C298.760356,283.199651 311.928618,304.070103 332.587688,314.026667 C323.627688,330.88 300.801022,353.706667 244.694355,360.533333 C233.478863,343.50282 211.780225,336.789048 192.906491,344.509658 C174.032757,352.230268 163.260418,372.226826 167.196286,392.235189 C171.132153,412.243552 188.675885,426.666667 209.067688,426.666667 C225.181549,426.577424 239.870491,417.417465 247.041022,402.986667 C338.561022,392.533333 367.787688,345.386667 376.961022,317.653333 C401.778455,309.61433 418.468885,286.351502 418.134355,260.266667 L418.134355,230.4 C418.23702,205.585799 402.934114,183.311569 379.734355,174.506667 Z M76.8010217,260.266667 C76.8010217,269.692326 69.1600148,277.333333 59.734355,277.333333 C50.3086953,277.333333 42.6676884,269.692326 42.6676884,260.266667 L42.6676884,230.4 C42.6676884,224.302667 45.9205765,218.668499 51.2010216,215.619833 C56.4814667,212.571166 62.9872434,212.571166 68.2676885,215.619833 C73.5481336,218.668499 76.8010217,224.302667 76.8010217,230.4 L76.8010217,260.266667 Z M341.334355,230.4 C341.334355,220.97434 348.975362,213.333333 358.401022,213.333333 C367.826681,213.333333 375.467688,220.97434 375.467688,230.4 L375.467688,260.266667 C375.467688,269.692326 367.826681,277.333333 358.401022,277.333333 C348.975362,277.333333 341.334355,269.692326 341.334355,260.266667 L341.334355,230.4 Z" />
    </symbol>
</svg>